<svg width="20" height="20" viewBox="0 0 20 20" fill="none" xmlns="http://www.w3.org/2000/svg">
<g clip-path="url(#clip0_1256_515)">
<path d="M6.66927 18.3332C7.12951 18.3332 7.5026 17.9601 7.5026 17.4998C7.5026 17.0396 7.12951 16.6665 6.66927 16.6665C6.20903 16.6665 5.83594 17.0396 5.83594 17.4998C5.83594 17.9601 6.20903 18.3332 6.66927 18.3332Z" stroke="#9810FA" stroke-width="1.66667" stroke-linecap="round" stroke-linejoin="round"/>
<path d="M15.8333 18.3332C16.2936 18.3332 16.6667 17.9601 16.6667 17.4998C16.6667 17.0396 16.2936 16.6665 15.8333 16.6665C15.3731 16.6665 15 17.0396 15 17.4998C15 17.9601 15.3731 18.3332 15.8333 18.3332Z" stroke="#9810FA" stroke-width="1.66667" stroke-linecap="round" stroke-linejoin="round"/>
<path d="M1.71094 1.7085H3.3776L5.59427 12.0585C5.67559 12.4375 5.8865 12.7764 6.1907 13.0167C6.4949 13.257 6.87336 13.3838 7.26094 13.3752H15.4109C15.7902 13.3745 16.158 13.2446 16.4535 13.0067C16.7489 12.7688 16.9544 12.4373 17.0359 12.0668L18.4109 5.87516H4.26927" stroke="#9810FA" stroke-width="1.66667" stroke-linecap="round" stroke-linejoin="round"/>
</g>
<defs>
<clipPath id="clip0_1256_515">
<rect width="20" height="20" fill="white"/>
</clipPath>
</defs>
</svg>
