<svg width="20" height="20" viewBox="0 0 20 20" fill="none" xmlns="http://www.w3.org/2000/svg">
<path d="M18.3307 14.1667C18.3307 14.6087 18.1551 15.0326 17.8426 15.3452C17.53 15.6577 17.1061 15.8333 16.6641 15.8333H5.6874C5.2454 15.8334 4.82155 16.0091 4.50906 16.3217L2.67406 18.1567C2.59132 18.2394 2.4859 18.2957 2.37114 18.3186C2.25637 18.3414 2.13742 18.3297 2.02932 18.2849C1.92121 18.2401 1.82881 18.1643 1.7638 18.067C1.69879 17.9697 1.66408 17.8553 1.66406 17.7383V4.16667C1.66406 3.72464 1.83966 3.30072 2.15222 2.98816C2.46478 2.67559 2.8887 2.5 3.33073 2.5H16.6641C17.1061 2.5 17.53 2.67559 17.8426 2.98816C18.1551 3.30072 18.3307 3.72464 18.3307 4.16667V14.1667Z" stroke="#00A63E" stroke-width="1.66667" stroke-linecap="round" stroke-linejoin="round"/>
</svg>
