<svg width="16" height="16" viewBox="0 0 16 16" fill="none" xmlns="http://www.w3.org/2000/svg">
<path d="M13.9903 8.32492C13.9278 9.48235 13.5314 10.5969 12.849 11.5339C12.1666 12.4708 11.2274 13.19 10.145 13.6046C9.06254 14.0192 7.88319 14.1113 6.74948 13.8699C5.61578 13.6285 4.57627 13.0639 3.75661 12.2444C2.93695 11.4248 2.37223 10.3853 2.13071 9.25165C1.8892 8.11798 1.98123 6.93861 2.39569 5.85613C2.81014 4.77364 3.52927 3.83438 4.46615 3.15187C5.40303 2.46937 6.51754 2.07285 7.67497 2.01025C7.94497 1.99558 8.0863 2.31692 7.94297 2.54558C7.46356 3.31262 7.25828 4.2195 7.36063 5.11822C7.46298 6.01694 7.86692 6.85444 8.50652 7.49404C9.14612 8.13364 9.98361 8.53757 10.8823 8.63992C11.7811 8.74227 12.6879 8.53699 13.455 8.05758C13.6843 7.91425 14.005 8.05492 13.9903 8.32492Z" fill="#D9D9D9"/>
</svg>
