<svg width="16" height="16" viewBox="0 0 16 16" fill="none" xmlns="http://www.w3.org/2000/svg">
<path d="M13.9913 8.32394C13.9288 9.48137 13.5324 10.5959 12.85 11.5329C12.1676 12.4698 11.2284 13.1891 10.146 13.6036C9.06352 14.0182 7.88416 14.1104 6.75046 13.869C5.61676 13.6276 4.57725 13.063 3.75759 12.2434C2.93792 11.4238 2.3732 10.3844 2.13169 9.25068C1.89018 8.117 1.98221 6.93764 2.39666 5.85515C2.81112 4.77266 3.53025 3.8334 4.46713 3.1509C5.40401 2.4684 6.51852 2.07188 7.67595 2.00927C7.94595 1.99461 8.08728 2.31594 7.94395 2.54461C7.46454 3.31164 7.25926 4.21852 7.36161 5.11724C7.46396 6.01596 7.86789 6.85346 8.50749 7.49306C9.14709 8.13266 9.98459 8.53659 10.8833 8.63894C11.782 8.74129 12.6889 8.53601 13.4559 8.05661C13.6853 7.91327 14.0059 8.05394 13.9913 8.32394Z" stroke="#0A0A0A" stroke-width="1.33333" stroke-linecap="round" stroke-linejoin="round"/>
</svg>
